<svg id="Layer_1" data-name="Layer 1" xmlns="http://www.w3.org/2000/svg" xmlns:xlink="http://www.w3.org/1999/xlink" viewBox="0 0 530.28 198.05"><defs><style>.cls-1{fill:url(#linear-gradient);}.cls-2{fill:url(#linear-gradient-2);}.cls-3{fill:url(#linear-gradient-3);}.cls-4{fill:url(#linear-gradient-4);}.cls-5{fill:url(#linear-gradient-5);}.cls-6{fill:url(#linear-gradient-6);}</style><linearGradient id="linear-gradient" x1="176.66" y1="479.44" x2="8.94" y2="311.71" gradientUnits="userSpaceOnUse"><stop offset="0" stop-color="#f2dabf"/><stop offset="1" stop-color="#20242a"/></linearGradient><linearGradient id="linear-gradient-2" x1="232.21" y1="386.75" x2="148.92" y2="303.46" xlink:href="#linear-gradient"/><linearGradient id="linear-gradient-3" x1="294.43" y1="433.52" x2="275.98" y2="415.07" xlink:href="#linear-gradient"/><linearGradient id="linear-gradient-4" x1="392.77" y1="413.92" x2="279.09" y2="300.23" xlink:href="#linear-gradient"/><linearGradient id="linear-gradient-5" x1="420.78" y1="278.61" x2="398.47" y2="256.3" xlink:href="#linear-gradient"/><linearGradient id="linear-gradient-6" x1="533.91" y1="443.53" x2="400.16" y2="309.79" xlink:href="#linear-gradient"/></defs><path class="cls-1" d="M224.21,403a11.44,11.44,0,0,1,9.61,17.7,61.39,61.39,0,0,1-14.48,15.14q-16.86,12.66-41.92,12.67-19.93,0-35.67-9a61.33,61.33,0,0,1-8.33-5.67,63.79,63.79,0,0,1-16.33-19.78,70.08,70.08,0,0,1-4.36-9.75,40.34,40.34,0,0,1-2.31-13.56V366.9a67.42,67.42,0,0,0-.59-9.22q-1.86-14.32-9.9-22.86Q89.45,323.69,71.3,323.7q-18.44,0-29.27,11.5T31.16,368.71v66a11.46,11.46,0,0,1-11.45,11.46h-.37A11.45,11.45,0,0,1,7.89,434.7V317.51a11.45,11.45,0,0,1,11.45-11.45h.37a11.45,11.45,0,0,1,11.45,11.45h0a2.91,2.91,0,0,0,5,2,47.4,47.4,0,0,1,13.76-10.14,58.3,58.3,0,0,1,26.21-5.87q25.56,0,41.41,15.45a47.14,47.14,0,0,1,6.51,7.93q8.25,12.63,9.2,31.52c.11,1.69.15,3.41.15,5.17v24.18a39.36,39.36,0,0,0,11.15,27.92c.5.5,1,1,1.53,1.46q12.92,11.64,31.32,11.64,15.09,0,25.19-7a37.11,37.11,0,0,0,11.62-12.95,11.28,11.28,0,0,1,10-5.84Z" transform="translate(-7.89 -251.6)"/><path class="cls-2" d="M239.8,370.75c0,1.62,0,3.28-.1,5a9.48,9.48,0,0,1-9.46,9.08H181a9.46,9.46,0,0,1-9.46-9.46h0a9.47,9.47,0,0,1,9.46-9.46h24.26a9.45,9.45,0,0,0,9.24-11.57,38.55,38.55,0,0,0-20.59-25.89,50,50,0,0,0-22.37-5,44.89,44.89,0,0,0-19.87,4.33,9.42,9.42,0,0,1-13.25-6.41h0a11.18,11.18,0,0,1,7-13,76.73,76.73,0,0,1,27.12-4.62q19.94,0,35.29,8.7a60.15,60.15,0,0,1,23.64,23.89C237,346.51,239.8,358,239.8,370.75Z" transform="translate(-7.89 -251.6)"/><path class="cls-3" d="M301.09,417.08l-14.87,24.25a10.09,10.09,0,0,1-8.61,4.83h0a10.11,10.11,0,0,1-8.47-15.62l15.52-23.84a9.72,9.72,0,0,1,16.36.11h0A9.73,9.73,0,0,1,301.09,417.08Z" transform="translate(-7.89 -251.6)"/><path class="cls-4" d="M356.34,446.16H354a10.12,10.12,0,0,1-8.52-4.68L315.22,394l-11-17.39-35.28-55a10.11,10.11,0,0,1,8.51-15.56h2.32a10.1,10.1,0,0,1,8.51,4.65l21.54,33.64a10.1,10.1,0,0,0,17.13-.18l20.34-33.28a10.1,10.1,0,0,1,8.62-4.83h0a10.1,10.1,0,0,1,8.47,15.61l-31.31,48.21a10.1,10.1,0,0,0,0,10.95l31.81,49.78A10.11,10.11,0,0,1,356.34,446.16Z" transform="translate(-7.89 -251.6)"/><path class="cls-5" d="M398.57,278.7a15.85,15.85,0,0,1,11.25-27.1,14.62,14.62,0,0,1,10.86,4.6,16.37,16.37,0,0,1,0,22.5,14.59,14.59,0,0,1-10.86,4.61A15.28,15.28,0,0,1,398.57,278.7Z" transform="translate(-7.89 -251.6)"/><path class="cls-6" d="M538.16,373.72v60.7a11.76,11.76,0,1,1-23.51,0,1.12,1.12,0,0,0-1.84-.86,73,73,0,0,1-66.22,13.16s-.06,0-.08,0a72.53,72.53,0,0,1-26.41-14.2,71.76,71.76,0,0,1-9.51-9.66,1.41,1.41,0,0,1-.18-.23,62.32,62.32,0,0,1-13.57-39.29V318.2c0-6.58,5.39-12.32,12-12.14a11.64,11.64,0,0,1,7.89,3.41,11.5,11.5,0,0,1,3.41,8.22,3.31,3.31,0,0,0,3.36,3.35,3.39,3.39,0,0,0,2.62-1.24,44.51,44.51,0,0,1,11.54-9.64q.67-.41,1.38-.78a.07.07,0,0,1,.06,0,72.5,72.5,0,0,1,25.7-5.56h.47v0a25.53,25.53,0,0,1-16.31,23.55,43.62,43.62,0,0,0-4.28,2l-1.32.73A44.51,44.51,0,0,0,426.19,348a53.78,53.78,0,0,0-6.07,20.69c-.22,2.22-.33,4.54-.33,6.91s.11,4.64.31,6.85a54.57,54.57,0,0,0,6.09,21.14,45.29,45.29,0,0,0,17.13,18.16A46.35,46.35,0,0,0,467.09,428,47.16,47.16,0,0,0,491,421.75a45.11,45.11,0,0,0,17.26-18.16q6.38-11.88,6.38-27.74t-6.38-27.59a47,47,0,0,0-9.72-12.54,10.71,10.71,0,0,1-1.78-14h0A10.61,10.61,0,0,1,512,319.26c.89.69,1.76,1.41,2.61,2.15s1.42,1.25,2.13,1.89C530.71,336.24,538.16,354.71,538.16,373.72Z" transform="translate(-7.89 -251.6)"/></svg>